<svg viewBox="0 0 24 24" fill="none" xmlns="http://www.w3.org/2000/svg">
<path d="M12 15.575C11.8667 15.575 11.7417 15.5583 11.625 15.525C11.5083 15.4917 11.4 15.4333 11.3 15.35L7.7 11.75C7.51667 11.5667 7.425 11.3333 7.425 11.05C7.425 10.7667 7.51667 10.5333 7.7 10.35C7.88333 10.1667 8.11667 10.075 8.4 10.075C8.68333 10.075 8.91667 10.1667 9.1 10.35L11 12.25V5C11 4.71667 11.0958 4.479 11.2875 4.287C11.4792 4.095 11.7167 4 12 4C12.2833 4 12.5208 4.095 12.7125 4.287C12.9042 4.479 13 4.71667 13 5V12.25L14.9 10.35C15.0833 10.1667 15.3167 10.075 15.6 10.075C15.8833 10.075 16.1167 10.1667 16.3 10.35C16.4833 10.5333 16.575 10.7667 16.575 11.05C16.575 11.3333 16.4833 11.5667 16.3 11.75L12.7 15.35C12.6 15.4333 12.4917 15.4917 12.375 15.525C12.2583 15.5583 12.1333 15.575 12 15.575ZM6 20C5.45 20 4.979 19.804 4.587 19.412C4.195 19.02 4 18.55 4 18V15C4 14.7167 4.09583 14.479 4.2875 14.287C4.47917 14.095 4.71667 14 5 14C5.28333 14 5.52083 14.095 5.7125 14.287C5.90417 14.479 6 14.7167 6 15V18H18V15C18 14.7167 18.0958 14.479 18.2875 14.287C18.4792 14.095 18.7167 14 19 14C19.2833 14 19.5208 14.095 19.7125 14.287C19.9042 14.479 20 14.7167 20 15V18C20 18.55 19.8042 19.02 19.4125 19.412C19.0208 19.804 18.55 20 18 20H6Z" fill="currentColor"/>
</svg> 